<?xml version="1.0" encoding="UTF-8"?>
<svg xmlns="http://www.w3.org/2000/svg" xmlns:xlink="http://www.w3.org/1999/xlink" viewBox="0 0 247.01 49.94">
    <defs>
        <style>.h{fill:url(#e);}.i{fill:url(#g);}.j{fill:url(#f);}.k,.l{fill:#fff;}.l{fill-rule:evenodd;}</style>
        <linearGradient id="e" x1="20.2" y1=".03" x2="20.47" y2="49.97" gradientTransform="matrix(1, 0, 0, 1, 0, 0)" gradientUnits="userSpaceOnUse">
            <stop offset="0" stop-color="#eb4575"/>
            <stop offset="1" stop-color="#f86535"/>
        </linearGradient>
        <linearGradient id="f" x1="38.39" y1="9.41" x2="38.56" y2="40.52" xlink:href="#e"/>
        <linearGradient id="g" x1="24.96" y1="22.2" x2="24.99" y2="27.75" xlink:href="#e"/>
    </defs>
    <g id="a"/>
    <g id="b">
        <g id="c">
            <path class="l" d="M196.08,18.95c1.6,0,2.96,.48,4.08,1.42,1.12,.96,1.81,2.25,2.12,3.83h-12.39c.3-1.59,1-2.85,2.12-3.81,1.12-.96,2.48-1.44,4.06-1.44m0-3.58c-2.91,0-5.6,1.03-7.56,2.79-1.97,1.78-3.21,4.47-3.21,7.54s1.25,5.76,3.21,7.53c1.96,1.76,4.65,2.8,7.56,2.8,2.07,0,3.97-.5,5.7-1.5,1.73-1,3.05-2.35,3.92-4.09l-3.81-1.84c-1.07,2.41-3.2,3.86-5.81,3.86-1.51,0-2.85-.48-3.99-1.47-1.14-.96-1.87-2.23-2.18-3.8h16.77c.19-3.51-.88-6.6-2.78-8.61-1.91-2.01-4.69-3.22-7.82-3.22Zm-29.69,15.01c-1.24-1.24-1.86-2.79-1.86-4.67s.61-3.45,1.84-4.69c1.24-1.24,2.73-1.86,4.5-1.86s3.25,.62,4.48,1.86c1.23,1.25,1.84,2.81,1.84,4.67s-.61,3.43-1.84,4.67c-1.23,1.25-2.73,1.87-4.48,1.87s-3.26-.63-4.48-1.86Zm3.29-15.01c-5.26-.1-9.7,4.45-9.6,10.34-.1,5.9,4.34,10.45,9.6,10.33,3.84,.02,6.34-1.14,7.52-3.44l.19,3.15h4.25V8.37h-4.45v10.46c-1.24-2.14-4.02-3.46-7.53-3.46h0Zm-27.99,14.98c-1.23-1.24-1.86-2.81-1.86-4.67s.63-3.43,1.86-4.66c1.23-1.23,2.73-1.85,4.5-1.85s3.25,.62,4.48,1.85c1.23,1.23,1.84,2.79,1.84,4.66s-.6,3.44-1.84,4.67c-1.23,1.23-2.71,1.85-4.48,1.85s-3.27-.62-4.5-1.85Zm9.86,4.4c1.62-.84,2.94-2.05,3.94-3.63,.98-1.59,1.48-3.39,1.48-5.43s-.5-3.85-1.48-5.44c-1-1.58-2.31-2.79-3.94-3.63-1.62-.83-3.43-1.25-5.37-1.25s-3.75,.41-5.37,1.25c-1.62,.84-2.94,2.05-3.93,3.63-.98,1.59-1.48,3.41-1.48,5.44s.5,3.84,1.48,5.43c.99,1.58,2.31,2.79,3.93,3.63,1.62,.83,3.43,1.25,5.37,1.25s3.75-.41,5.37-1.25Zm-28.1-2.47c-1.76,0-3.24-.62-4.48-1.87-1.23-1.23-1.83-2.82-1.83-4.72s.6-3.49,1.83-4.73c1.23-1.25,2.71-1.87,4.48-1.87,2.26,0,4.19,1.1,5.26,3.12l4.03-1.67c-.84-1.58-2.1-2.83-3.76-3.76-1.67-.93-3.51-1.39-5.52-1.39s-3.74,.41-5.37,1.25c-1.62,.84-2.94,2.06-3.92,3.64-.98,1.59-1.48,3.4-1.48,5.43s.5,3.83,1.48,5.41c.98,1.58,2.29,2.8,3.92,3.64,1.62,.84,3.42,1.25,5.37,1.25s3.85-.46,5.51-1.39c1.66-.91,2.92-2.16,3.78-3.74l-4.03-1.69c-1.07,2.01-2.99,3.12-5.26,3.12Zm-24.01,3.46h4.45v-10.04c0-1.97,.66-3.56,1.96-4.75,1.3-1.2,3.12-1.78,5.45-1.78v-3.8c-1.85,0-3.33,.2-4.44,.61-1.11,.41-2.11,1.19-2.98,2.31l-.21-2.63h-4.24v20.08Zm-15.45-3.5c-1.75,0-3.23-.63-4.47-1.87-1.23-1.24-1.84-2.79-1.84-4.67s.61-3.42,1.84-4.67c1.23-1.24,2.71-1.86,4.47-1.86s3.26,.62,4.5,1.86c1.23,1.25,1.84,2.81,1.84,4.67s-.61,3.43-1.84,4.67c-1.24,1.25-2.73,1.87-4.5,1.87Zm-1.18-16.87c-5.24-.1-9.67,4.45-9.57,10.34-.1,5.9,4.33,10.45,9.57,10.33,3.84,.02,6.34-1.14,7.51-3.44l.19,3.15h4.25V15.66h-4.25l-.19,3.18c-1.23-2.15-4.02-3.47-7.51-3.47Zm-21.55,16.91c-1.76,0-3.24-.62-4.48-1.87-1.23-1.23-1.83-2.82-1.83-4.72s.6-3.49,1.83-4.73c1.23-1.25,2.71-1.87,4.48-1.87,2.26,0,4.19,1.1,5.26,3.12l4.03-1.67c-.84-1.58-2.1-2.83-3.76-3.76-1.67-.93-3.51-1.39-5.52-1.39s-3.74,.41-5.37,1.25c-1.62,.84-2.94,2.06-3.92,3.64-.98,1.59-1.48,3.4-1.48,5.43s.5,3.83,1.48,5.41c.98,1.58,2.29,2.8,3.92,3.64,1.62,.84,3.42,1.25,5.37,1.25s3.85-.46,5.51-1.39c1.66-.91,2.92-2.16,3.78-3.74l-4.03-1.69c-1.07,2.01-2.99,3.12-5.26,3.12Zm150.78,3.72c.69,0,1.28-.25,1.8-.75,.5-.5,.75-1.11,.75-1.8s-.25-1.28-.75-1.78c-.52-.5-1.11-.75-1.8-.75s-1.3,.25-1.8,.75c-.5,.5-.75,1.08-.75,1.78s.25,1.31,.75,1.8c.48,.5,1.09,.75,1.8,.75Z"/>
            <path class="k" d="M220.24,12.38c-.58,0-1.06-.22-1.46-.62-.4-.4-.62-.88-.62-1.46s.22-1.06,.62-1.46,.88-.58,1.46-.58c.55,0,1.06,.18,1.46,.58s.58,.91,.58,1.46c0,.58-.18,1.06-.58,1.46-.4,.4-.91,.62-1.46,.62Zm-1.68,3.28h3.28v20.07h-3.28V15.66Z"/>
            <path class="k" d="M231.09,34.72c-1.61-.88-2.88-2.12-3.83-3.69-.99-1.57-1.46-3.36-1.46-5.33s.47-3.76,1.46-5.37c.95-1.57,2.23-2.77,3.87-3.65,1.61-.84,3.36-1.28,5.26-1.28,2.88,0,5.58,1.1,7.52,2.85,1.9,1.79,3.1,4.45,3.1,7.45s-1.21,5.66-3.1,7.41c-1.93,1.79-4.64,2.88-7.52,2.88-1.9,0-3.69-.44-5.29-1.28Zm10.51-3.69c1.46-1.46,2.15-3.21,2.15-5.33s-.69-3.87-2.12-5.33c-1.46-1.46-3.17-2.15-5.26-2.15s-3.76,.69-5.18,2.15c-1.42,1.46-2.15,3.21-2.15,5.33s.73,3.87,2.15,5.33c1.42,1.46,3.14,2.15,5.18,2.15s3.76-.69,5.22-2.15Z"/>
        </g>
        <g id="d">
            <g>
                <path class="h" d="M19.09,30.86c-3.25-3.25-3.25-8.52,0-11.77,1.81-1.81,4.25-2.61,6.61-2.41,2.2,.19,4.17-.53,5.73-2.09l1.2-1.2c-5.39-3.57-12.72-2.98-17.46,1.77-5.42,5.42-5.42,14.2,0,19.62,4.75,4.75,12.07,5.33,17.46,1.77l-1.2-1.2c-1.56-1.56-3.53-2.28-5.73-2.09-2.37,.2-4.8-.6-6.61-2.41m-7.85,7.85c-7.58-7.58-7.58-19.88,0-27.47,6.92-6.92,17.76-7.53,25.37-1.82l3.95-3.96C30.75-2.39,16.4-1.77,7.31,7.31c-9.75,9.75-9.75,25.56,0,35.31,9.09,9.09,23.44,9.71,33.24,1.85l-3.95-3.96c-7.61,5.7-18.45,5.1-25.37-1.82Z"/>
                <path class="j" d="M38.7,38.7c.67-.66,1.27-1.37,1.82-2.1,5.15-6.87,5.15-16.39,0-23.27-.55-.73-1.16-1.43-1.82-2.1-.67-.67-1.37-1.27-2.1-1.82l-3.98,3.98c.76,.51,1.49,1.09,2.16,1.77,.67,.67,1.26,1.39,1.77,2.16,3.06,4.62,3.06,10.68,0,15.3-.51,.76-1.09,1.49-1.77,2.16-.67,.67-1.4,1.26-2.16,1.77l3.98,3.98c.73-.55,1.43-1.16,2.1-1.82"/>
                <path class="i" d="M23.01,26.93c1.08,1.08,2.84,1.08,3.92,0,1.08-1.08,1.08-2.84,0-3.92-1.08-1.08-2.84-1.08-3.92,0-1.08,1.08-1.08,2.84,0,3.92"/>
            </g>
        </g>
    </g>
</svg>